<?xml version="1.0" encoding="UTF-8" standalone="no"?>
<!DOCTYPE svg PUBLIC "-//W3C//DTD SVG 1.1//EN" "http://www.w3.org/Graphics/SVG/1.1/DTD/svg11.dtd">
<!-- Created with Vectornator (http://vectornator.io/) -->
<svg height="100%" stroke-miterlimit="10" style="fill-rule:nonzero;clip-rule:evenodd;stroke-linecap:round;stroke-linejoin:round;" version="1.1" viewBox="0 0 129 71" width="100%" xml:space="preserve" xmlns="http://www.w3.org/2000/svg" xmlns:vectornator="http://vectornator.io" xmlns:xlink="http://www.w3.org/1999/xlink">
<defs/>
<clipPath id="ArtboardFrame">
<rect height="71" width="129" x="0" y="0"/>
</clipPath>
<g clip-path="url(#ArtboardFrame)" id="Untitled" vectornator:layerName="Untitled">
<path d="M0 7.1C0 3.17878 3.15849 0 7.05469 0C10.9509 0 14.1094 3.17878 14.1094 7.1C14.1094 11.0212 10.9509 14.2 7.05469 14.2C3.15849 14.2 0 11.0212 0 7.1Z" fill="#07169a" fill-rule="nonzero" opacity="1" stroke="none" vectornator:layerName="ellipse"/>
<path d="M114.89 7.1C114.89 3.17878 118.049 0 121.945 0C125.841 0 129 3.17878 129 7.1C129 11.0212 125.841 14.2 121.945 14.2C118.049 14.2 114.89 11.0212 114.89 7.1Z" fill="#07169a" fill-rule="nonzero" opacity="1" stroke="none" vectornator:layerName="ellipse"/>
<path d="M14.1094 21.3C14.1094 17.3788 17.2679 14.2 21.1641 14.2C25.0603 14.2 28.2188 17.3788 28.2188 21.3C28.2188 25.2212 25.0603 28.4 21.1641 28.4C17.2679 28.4 14.1094 25.2212 14.1094 21.3Z" fill="#07169a" fill-rule="nonzero" opacity="1" stroke="none" vectornator:layerName="ellipse"/>
<path d="M100.781 21.3C100.781 17.3788 103.94 14.2 107.836 14.2C111.732 14.2 114.891 17.3788 114.891 21.3C114.891 25.2212 111.732 28.4 107.836 28.4C103.94 28.4 100.781 25.2212 100.781 21.3Z" fill="#07169a" fill-rule="nonzero" opacity="1" stroke="none" vectornator:layerName="ellipse"/>
<path d="M28.2187 35.5C28.2187 31.5788 31.3772 28.4 35.2734 28.4C39.1696 28.4 42.3281 31.5788 42.3281 35.5C42.3281 39.4212 39.1696 42.6 35.2734 42.6C31.3772 42.6 28.2187 39.4212 28.2187 35.5Z" fill="#07169a" fill-rule="nonzero" opacity="1" stroke="none" vectornator:layerName="ellipse"/>
<path d="M42.3281 49.7C42.3281 45.7788 45.4866 42.6 49.3828 42.6C53.279 42.6 56.4375 45.7788 56.4375 49.7C56.4375 53.6212 53.279 56.8 49.3828 56.8C45.4866 56.8 42.3281 53.6212 42.3281 49.7Z" fill="#07169a" fill-rule="nonzero" opacity="1" stroke="none" vectornator:layerName="ellipse"/>
<path d="M72.5625 49.7C72.5625 45.7788 75.721 42.6 79.6172 42.6C83.5134 42.6 86.6719 45.7788 86.6719 49.7C86.6719 53.6212 83.5134 56.8 79.6172 56.8C75.721 56.8 72.5625 53.6212 72.5625 49.7Z" fill="#07169a" fill-rule="nonzero" opacity="1" stroke="none" vectornator:layerName="ellipse"/>
<path d="M57.3646 63.9C57.3646 59.9788 60.5231 56.8 64.4193 56.8C68.3155 56.8 71.474 59.9788 71.474 63.9C71.474 67.8212 68.3155 71 64.4193 71C60.5231 71 57.3646 67.8212 57.3646 63.9Z" fill="#07169a" fill-rule="nonzero" opacity="1" stroke="none" vectornator:layerName="ellipse"/>
<path d="M86.6719 35.5C86.6719 31.5788 89.8304 28.4 93.7266 28.4C97.6228 28.4 100.781 31.5788 100.781 35.5C100.781 39.4212 97.6228 42.6 93.7266 42.6C89.8304 42.6 86.6719 39.4212 86.6719 35.5Z" fill="#07169a" fill-rule="nonzero" opacity="1" stroke="none" vectornator:layerName="ellipse"/>
</g>
</svg>
