<?xml version="1.0" encoding="UTF-8" standalone="no"?>
<!DOCTYPE svg PUBLIC "-//W3C//DTD SVG 1.1//EN" "http://www.w3.org/Graphics/SVG/1.1/DTD/svg11.dtd">
<!-- Created with Vectornator (http://vectornator.io/) -->
<svg height="100%" stroke-miterlimit="10" style="fill-rule:nonzero;clip-rule:evenodd;stroke-linecap:round;stroke-linejoin:round;" version="1.1" viewBox="0 0 129 71" width="100%" xml:space="preserve" xmlns="http://www.w3.org/2000/svg" xmlns:vectornator="http://vectornator.io" xmlns:xlink="http://www.w3.org/1999/xlink">
<defs/>
<clipPath id="ArtboardFrame">
<rect height="71" width="129" x="0" y="0"/>
</clipPath>
<g clip-path="url(#ArtboardFrame)" id="Untitled" vectornator:layerName="Untitled">
<path d="M0 63.9C0 67.8212 3.15849 71 7.05469 71C10.9509 71 14.1094 67.8212 14.1094 63.9C14.1094 59.9788 10.9509 56.8 7.05469 56.8C3.15849 56.8 0 59.9788 0 63.9Z" fill="#07169a" fill-rule="nonzero" opacity="1" stroke="none" vectornator:layerName="ellipse"/>
<path d="M114.89 63.9C114.89 67.8212 118.049 71 121.945 71C125.841 71 129 67.8212 129 63.9C129 59.9788 125.841 56.8 121.945 56.8C118.049 56.8 114.89 59.9788 114.89 63.9Z" fill="#07169a" fill-rule="nonzero" opacity="1" stroke="none" vectornator:layerName="ellipse"/>
<path d="M14.1094 49.7C14.1094 53.6212 17.2679 56.8 21.1641 56.8C25.0603 56.8 28.2188 53.6212 28.2188 49.7C28.2188 45.7788 25.0603 42.6 21.1641 42.6C17.2679 42.6 14.1094 45.7788 14.1094 49.7Z" fill="#07169a" fill-rule="nonzero" opacity="1" stroke="none" vectornator:layerName="ellipse"/>
<path d="M100.781 49.7C100.781 53.6212 103.94 56.8 107.836 56.8C111.732 56.8 114.891 53.6212 114.891 49.7C114.891 45.7788 111.732 42.6 107.836 42.6C103.94 42.6 100.781 45.7788 100.781 49.7Z" fill="#07169a" fill-rule="nonzero" opacity="1" stroke="none" vectornator:layerName="ellipse"/>
<path d="M28.2187 35.5C28.2187 39.4212 31.3772 42.6 35.2734 42.6C39.1696 42.6 42.3281 39.4212 42.3281 35.5C42.3281 31.5788 39.1696 28.4 35.2734 28.4C31.3772 28.4 28.2187 31.5788 28.2187 35.5Z" fill="#07169a" fill-rule="nonzero" opacity="1" stroke="none" vectornator:layerName="ellipse"/>
<path d="M42.3281 21.3C42.3281 25.2212 45.4866 28.4 49.3828 28.4C53.279 28.4 56.4375 25.2212 56.4375 21.3C56.4375 17.3788 53.279 14.2 49.3828 14.2C45.4866 14.2 42.3281 17.3788 42.3281 21.3Z" fill="#07169a" fill-rule="nonzero" opacity="1" stroke="none" vectornator:layerName="ellipse"/>
<path d="M72.5625 21.3C72.5625 25.2212 75.721 28.4 79.6172 28.4C83.5134 28.4 86.6719 25.2212 86.6719 21.3C86.6719 17.3788 83.5134 14.2 79.6172 14.2C75.721 14.2 72.5625 17.3788 72.5625 21.3Z" fill="#07169a" fill-rule="nonzero" opacity="1" stroke="none" vectornator:layerName="ellipse"/>
<path d="M57.3646 7.1C57.3646 11.0212 60.5231 14.2 64.4193 14.2C68.3155 14.2 71.474 11.0212 71.474 7.1C71.474 3.17878 68.3155 0 64.4193 0C60.5231 0 57.3646 3.17878 57.3646 7.1Z" fill="#07169a" fill-rule="nonzero" opacity="1" stroke="none" vectornator:layerName="ellipse"/>
<path d="M86.6719 35.5C86.6719 39.4212 89.8304 42.6 93.7266 42.6C97.6228 42.6 100.781 39.4212 100.781 35.5C100.781 31.5788 97.6228 28.4 93.7266 28.4C89.8304 28.4 86.6719 31.5788 86.6719 35.5Z" fill="#07169a" fill-rule="nonzero" opacity="1" stroke="none" vectornator:layerName="ellipse"/>
</g>
</svg>
