<svg width="28" height="28" viewBox="0 0 28 28" fill="none" xmlns="http://www.w3.org/2000/svg">
<path d="M19.8333 2.33331H8.16666C4.945 2.33331 2.33333 4.94499 2.33333 8.16665V19.8333C2.33333 23.055 4.945 25.6666 8.16666 25.6666H19.8333C23.055 25.6666 25.6667 23.055 25.6667 19.8333V8.16665C25.6667 4.94499 23.055 2.33331 19.8333 2.33331Z" stroke="black" stroke-width="2" stroke-linecap="round" stroke-linejoin="round"/>
<path d="M18.6667 13.265C18.8106 14.2359 18.6448 15.2276 18.1927 16.0988C17.7406 16.9701 17.0253 17.6766 16.1486 18.1179C15.2718 18.5592 14.2782 18.7128 13.3091 18.5569C12.34 18.401 11.4447 17.9434 10.7506 17.2493C10.0566 16.5553 9.59902 15.66 9.44308 14.6909C9.28714 13.7218 9.44074 12.7282 9.88205 11.8514C10.3234 10.9746 11.0299 10.2593 11.9011 9.80727C12.7724 9.35518 13.764 9.18934 14.735 9.33332C15.7254 9.48018 16.6423 9.94169 17.3503 10.6497C18.0583 11.3577 18.5198 12.2746 18.6667 13.265Z" stroke="black" stroke-width="2" stroke-linecap="round" stroke-linejoin="round"/>
<path d="M20.4167 7.58331H20.4283" stroke="black" stroke-width="2" stroke-linecap="round" stroke-linejoin="round"/>
</svg>
